<svg version="1" xmlns="http://www.w3.org/2000/svg" width="853.333" height="853.333" viewBox="0 0 640.000000 640.000000"><path d="M250.5 70.9c-8 1.3-29.3 8.1-38 12.1-9.5 4.4-18 11-29 22.5l-8.1 8.3-8.5-.5c-10.3-.7-26.8 1.1-34.8 3.7-23.9 7.9-45.4 27.3-52.8 47.8-3.3 9.1-4.9 25-3.5 34.9.8 5.5.8 9.2.1 12.3-1 4.3-.8 15.5.7 50.5.6 12.8.5 13.1-2.5 20.9-3.5 8.7-8.1 16-11.1 17.6-4.8 2.6-3.1 10 2.1 10 4.5 0 14.4-2.7 21.5-6l6.2-2.8-1.5 4.1c-2.3 6.5-2.8 21-.9 28.3.9 3.4 1.6 8.4 1.6 11 .1 15.1 9.2 34 19.5 40.8 6.4 4.2 13.1 7.3 17.8 8.1 3.2.6 3.8 1.2 5.1 5.4 1.7 5.4 2.2 8.4 3.5 20.4 1.7 15.1 6.2 22.2 30.8 48.9 13.7 14.9 24.6 24.3 46.2 39.8 5.7 4.1 12 8.7 14 10.2 13.9 10.4 33 22 48.1 29.2 12.6 6 18.8 6.9 42 6.1 39.3-1.3 46.1-2.5 63.4-11.1 11.3-5.6 18.8-10.7 30.6-20.9 5.2-4.5 10.5-8.8 11.8-9.7 5.1-3.4 59-58.3 63.7-64.8 1.1-1.6 4.1-5.2 6.6-8.2 8.2-9.4 9.9-15.3 9.9-33.7v-11.9l5.8-.4c17.6-1.3 31.5-16.1 38.2-40.8 3.6-13.4 4.8-26.1 3.1-34.1-1.3-6.4-6.1-12.8-10.9-14.8l-3-1.3-.4-14.1c-.4-13.1-.3-14.6 1.8-19.4 1.5-3.4 2.8-9.8 3.8-18 1-9.3 2.1-14.3 4-18.3 2.2-4.8 2.6-6.9 2.6-15.6 0-7.6-.5-11.5-2-16-1.2-3.2-3-9.3-4.1-13.4-1.9-7.1-6.1-15.9-9.7-20.5-2.4-3.1-14.5-13.3-21.5-18.1-7.3-5.2-9.5-8.1-16.8-22.9-3.3-6.6-7.7-13.7-9.7-15.8-8.2-8.4-23.1-13.6-50-17.3-13-1.8-17.5-3.4-24.7-8.9-6.1-4.6-15.5-9-25-11.7-6.4-1.8-10.6-2.2-21.5-2.3-12.8 0-14 .2-23 3.4-5.2 1.8-10.4 4-11.5 4.7-4.4 3.1-23.1.9-39.1-4.7-8-2.9-10.3-3.2-22.4-3.5-7.4-.1-15.7.1-18.5.5zM180.7 125c27.7 9.4 42.3 30.7 42.3 61.6 0 17.2-4.2 26.7-17.7 40.1-7.7 7.7-9.3 9.8-9.3 12.3 0 4.5 3.5 10.6 9.3 16.3l5.2 5-6.9-.7c-8.9-.9-16.4-3.6-22.6-8.1l-5-3.6-6.4 2.5c-9.5 3.8-16 4.9-25.1 4.3-16.2-1.3-31.5-7.5-42.4-17.4-8-7.2-13.2-17.6-16.2-32.3-1.9-9.3-2.1-11.6-1.2-20 2.6-23.9 15.2-42.6 35.8-53.2 21.6-11 41.2-13.2 60.2-6.8zm161.7 92.7c-2.8 12.5-8.9 27.9-12.8 32.8-1.6 1.9-1.7 1.5-1.4-6.5.3-7.1.8-9.5 3.2-14.2 2.6-5 10-14.8 11.2-14.8.2 0 .2 1.2-.2 2.7zm105.3 38c.9 37.6.8 36.3 4.1 36.3.9 0 4.7-2.8 8.3-6.3 3.7-3.4 8.9-7.4 11.6-8.9l5-2.8.6 8.3c.7 9.5 2.9 16.4 9.2 28.8l4.6 9-6.6 3c-6.5 3.1-6.5 3.1-15.2 1.9-5.9-.8-10.6-2.1-14.7-4.2-17-8.5-30.7-11.2-54.5-10.7-12.7.3-16.1.1-16.1-.9 0-.9 1-1.1 3.5-.6 2.7.5 4.1.2 5.5-1.1 1.4-1.3 4.1-1.8 10-2.1 4.5-.2 8.5-.6 9.1-.9 2.2-1.4.8-5.3-3-8.3-4.6-3.7-5.7-3.9-7.3-1.3-1.1 1.8-1.4 1.8-3.9.5-3.4-1.7-6.1-1.8-7.7-.2-.7.7-3.9 1.3-7.2 1.4-3.8.1-6.7.7-7.8 1.7-1.3 1.1-3.5 1.4-8.7 1.2-3.8-.1-7.6.2-8.2.7-3.2 2.6-.5 6.6 7.4 11l4.3 2.4-7.6 3.4c-4.1 1.8-10.2 5-13.5 7.2l-6 3.8-6.7-2.1c-7.6-2.4-20-2.8-27-1-4 1.1-4.5 1-7.3-1.3-2.4-2.1-3.4-2.4-5-1.6-2 1.1-2.6 4.5-.9 5.5.6.3 1 1.1 1 1.6 0 .6-2.6-1-5.7-3.4-3.2-2.5-8.6-5.7-12-7.2l-6.2-2.7 4.8-3.9c2.7-2.2 5.2-4.6 5.5-5.5.9-2.4-1.1-5.2-4.1-5.6-2.1-.2-.5-1.1 6.7-3.6 16.8-5.9 24.9-10.3 31.5-17.3l6-6.4 8-.6c7.5-.6 16.3-3.4 23.7-7.4 1.4-.8 2.8-1.5 3.1-1.5.2 0-.3 2.1-1.1 4.6-2.5 7.8 1.7 10.8 8.2 5.9 5.2-3.9 29.1-14.4 36.6-16.1 3.6-.7 8.4-1.4 10.8-1.4 5.8 0 25.6-4.6 30.1-7 2-1.1 3.8-1.9 4.1-2 .3 0 .6 3.5.7 7.7zM191.5 265c2.4.9 2.5 1.3 2.5 9.2 0 9.6-2.1 19.1-6.1 27-3.4 6.8-3.6 9.3-.8 10.8 1.6.9 2.6.8 4.5-.5 1.3-.8 2.4-2 2.4-2.5 0-1.9 4.8-3.4 6.4-2.1 2.8 2.3 7.6-2 7.6-6.7 0-1.4 2.1-3.3 6.5-6.1 3.5-2.3 6.7-4.1 7-4.1.3 0 .5.8.5 1.7 0 1-1.5 2.5-3.3 3.3-1.7.8-3.9 2.8-4.7 4.3-1.4 2.6-1.4 2.9.4 4.2 1.6 1.2 2.3 1.2 4.8-.1l2.9-1.5-.3 4.3c-.3 4-.5 4.3-3.3 4.6-7.5.9-20.2 4.5-28.5 8.2-11.1 5-17.8 6.3-25.1 4.7-5.3-1.2-5.4-1.3-5.7-5.1-.3-3.5.2-4.4 4.6-9 9.8-10 14.7-20 17.8-36.1.9-5 1.9-9.4 2.1-9.8.5-.9 3.3-.4 7.8 1.3zm86.5 13.4c-2.3 5.5-7.2 13-10.9 16.7-3.6 3.6-6.5 4.3-9.4 2.4-1.3-.8-3.2-1.3-4.1-.9-3.3 1.3-1.4-.6 4.6-4.7 3.4-2.3 9.6-7.7 13.7-11.8 4.2-4.2 7.7-7.3 7.9-7 .1.3-.6 2.7-1.8 5.3zm-38.4 29.5c.5.5 2.3 1.1 3.9 1.4 1.7.2.6.5-2.7.6-4.7.1-5.6-.2-5.2-1.4.7-1.7 2.5-2 4-.6zm297.2 6.4c5.8 6.1 6.5 14.6 2.8 31.9-2.7 12.1-7.1 23.1-11.7 28.9-3.5 4.5-12.4 8.8-18.7 9.2l-4.7.2v-4c0-3.6.4-4.2 4.3-6.3 10-5.5 14.1-12.6 12.8-21.7-.6-3.6-1.7-5.6-4.8-8.7l-4.1-4.1 2.8-2.5c2.5-2.1 3.4-2.3 8-1.7 4.1.5 5.5.3 6.5-1 1.8-2.2-.2-6.3-3.5-7.1-1.4-.3-2.5-.8-2.5-1 0-.3 1.8-2.7 3.9-5.4 2.2-2.8 4.3-5.9 4.6-7 .8-2.6 1.7-2.5 4.3.3zm-265.3-.3c.3.5-.1 1-1 1s-1.3-.5-1-1c.3-.6.8-1 1-1 .2 0 .7.4 1 1zM416 326.5c15 1.2 32.1 7.3 38.8 13.7 4.5 4.4 4.3 6.8-.5 6.8-2.1 0-4.9-.6-6.3-1.4-1.4-.7-4.4-2.3-6.6-3.5-6.8-3.6-26.5-8.1-35.4-8.1-9.9 0-20.9 2.1-28.3 5.4-5.9 2.6-15.7 9.8-21.1 15.5-1.6 1.7-3.3 2.8-3.8 2.5-.4-.3-.8-3.3-.8-6.8 0-5.9.2-6.5 3.7-9.9 9.1-9.2 19.7-13.5 35.8-14.6 6.1-.5 12.4-.7 14-.5 1.7.2 6.4.6 10.5.9zm-159.6 2c11.5 2.4 24.7 8 29.4 12.5 3.1 3 4.2 6.1 4.2 12.4 0 17.9-7.8 31.7-21.1 37.5-11.3 5-30.6 6.4-45.9 3.5-10.5-2-15.2-3.8-21.7-8.6-5.6-4.1-13.3-13.8-9.7-12.3 17.5 7.4 47.7 9.8 66.5 5.1 12.1-3 18.4-6.2 23.7-12 4.7-5.1 4.8-5.5 2.8-9.4-6.4-12.1-32.9-23.2-55.5-23.2-10.4 0-24 3.1-34.5 7.9-7 3.2-8.3 3.3-7.3.7 1.5-3.9 17.2-11.5 29.1-14.1 8.4-1.8 31.4-1.8 40 0zm239.1 47.3c-.1 49.2.2 47.4-11.4 61.9-9.5 12-49.6 52.6-68.1 69-37.6 33.4-49.8 37.8-104.5 37.8h-21l-14.6-7.6c-15.5-8.1-30.1-17.3-43.5-27.3-4.4-3.4-10.6-7.9-13.8-10.1-21.7-15-34-26.4-54.6-50.4-13-15.1-14.7-18.4-16.5-31.8-6.2-45.7-6-47.7 3.8-69.6 1.9-4.3 3.7-8 4-8.3.3-.3 2 .1 3.9.9 3 1.3 3.6 2.1 4.6 6.9 1 4.3 2.2 6.3 5.5 9.5 2.3 2.2 5.2 4.6 6.3 5.2 1.4.6 2.4 2.4 2.9 4.8 2.6 14.6 17.8 29.6 35.5 35.1 4.4 1.4 9.4 1.7 24.5 1.7 16.7 0 20-.3 26.8-2.3 9.4-2.7 12.8-4.3 18.3-8.8 8.7-7 14.1-19.5 15.2-35.3.7-9.4.7-9.6 4.1-11.8 1.8-1.2 3.7-2 4.2-1.7 1.6 1 .9 12.8-1.2 19.4-6.4 20.7-8.8 43.7-5.1 51 3.1 6.3 7.3 6.9 29.8 4.2 14-1.8 17.4-5 17.4-16.5 0-5.8-.3-6.8-2.9-9.6-3.3-3.6-5.6-3.9-7.1-1.2-.8 1.6-.5 2.6 1.5 4.9 3.3 3.9 3.4 9.4.2 12.6-1.7 1.7-4 2.5-8.3 3-3.2.3-8.7 1.2-12.1 1.8-7.7 1.4-12.4.3-13.4-3.2-2.1-7.6.2-24.4 6.3-44.9 2.6-9 2.9-11.2 2.4-17.2l-.7-6.9h8.3c7 0 9.1.4 13.8 2.8 6.3 3.1 6.5 3.7 9.5 20.2 2 11.7 4.6 17.1 10.9 23.3 6 5.8 11.8 9.1 21.6 12.4 6.7 2.3 9.1 2.5 23.5 2.6 31.1.1 42.3-2.9 52.8-14.3 6.7-7.2 10.4-14.5 12.6-24.7l1.6-7.7 5.7-3.3c5-2.9 5.9-3.9 7.1-7.9 1.1-3.9 2.1-5.1 6.8-7.9 3.6-2.3 5.7-3.1 6.4-2.4.6.6 1 15.8 1 41.7zm-384.6-23.3c.2 5.2 5.6 16 11.6 23.4 3.2 3.9 5.5 7.4 5.2 7.7-.3.3-2.9-.7-5.7-2.2-6.5-3.5-13.3-11.1-16.1-18.1l-2.1-5.2 2.1-2.7c1.2-1.5 2.1-3.7 2.1-5 0-1.2.3-3.1.7-4.1.6-1.6.8-1.5 1.4.7.4 1.4.8 3.8.8 5.5zm115.4-3.7c4 3.6 0 12.2-5.8 12.2-1.4 0-3.7-1.1-5-2.5-7-6.9 3.3-16.3 10.8-9.7zm174 1c4.2 3.7.5 12.2-5.3 12.2-4.6 0-7-2.6-7-7.4 0-2.4.6-4.8 1.3-5.4 2.8-2.3 7.9-2 11 .6zm34 .3c11.5 5.7 12.2 7.9 4.4 13.1-5.9 4-11.2 6.8-12.5 6.8-.6 0-.5-2.1 0-5.3.6-2.8.8-8 .5-11.5-.3-3.5-.1-6.2.5-6.2.5 0 3.7 1.4 7.1 3.1zM262 352.8c10.2 5 14.6 8.4 13.5 10.1-1.9 3.1-24.3 11.6-26.1 9.9-.2-.3.1-1.9.6-3.8.5-1.8 1.3-7.3 1.6-12.1.4-4.9 1-8.7 1.3-8.5.3.1 4.4 2.1 9.1 4.4zm251 .1c1 2.6.9 3.5-.6 6.7-1.1 2-3.4 4.5-5.1 5.6l-3.3 2v-4.7c0-2.5 1-6.8 2.1-9.5 1.8-4.2 2.4-4.8 3.9-4 .9.5 2.3 2.3 3 3.9zm-305.7 4.8c.3 4.9.9 9.9 1.3 11.2.7 2.3.6 2.4-3.2 1.7-6.1-1.2-16.4-7.7-16.4-10.4 0-2.4 12.6-11.2 16.1-11.2 1.4 0 1.7 1.5 2.2 8.7zm173.5-2.5c.2 4.8 1.9 12.7 3.7 17 .6 1.5.2 1.6-3.2 1.1-4.8-.7-16.7-6-18.9-8.4-.9-1-1.4-2.5-1.1-3.3.7-1.8 15.6-11.6 17.7-11.6 1.2 0 1.6 1.2 1.8 5.2zm77.3 8.9c-2.3 10.5-11.1 21.8-20.1 25.8-6.2 2.7-19.9 4.4-36 4.4-11.8-.1-14.5-.4-21.6-2.7-12.3-4-22.5-12.3-24.9-20.4-.6-2.1-.3-2 5.1 1.4 14.4 9.2 33 11.5 57 6.9 13.2-2.5 24.8-8.3 37.2-18.5 2-1.6 3.8-2.8 4-2.5.2.2-.1 2.7-.7 5.6zm-217-4.1c2.2 1.2 2.6 5.9.7 7.8-1.7 1.7-4.8 1.5-7-.5s-2.3-4.6-.2-6.7c1.8-1.9 3.8-2 6.5-.6zm178.3.6c2.1 2 2 4.3-.1 6.6-3.1 3.5-9.3 1.8-9.3-2.6 0-4.7 6.1-7.3 9.4-4z"/><path d="M142.8 152.3c-6.2 1.8-11.1 5.7-13.7 11-3.2 6.6-2.5 11.3 1.9 13.7 2.9 1.6 4.9.1 7.9-6.1 3.3-6.8 7.3-9.2 14.8-8.6 5.9.4 8.9 2.4 9.8 6.7.9 4-1.7 7.5-7 9.5-6.6 2.6-10 6.7-9.9 12 .1 6.4 3 13.4 5.9 14.1 6 1.5 8.6-2.4 6.6-9.9-.9-3.6-.8-4.3.6-5.2 8.6-5.3 11-7.4 13.1-11.5 3-5.7 2.5-11.4-1.4-17.7-4.5-7.2-7.3-8.8-16.2-9-4.2-.2-9.8.3-12.4 1zM156.7 212.8c-2.2 2.5-2.1 7.5.1 9.5 2.5 2.2 7.5 2.1 9.5-.1 2.2-2.5 2.1-7.5-.1-9.5-2.5-2.2-7.5-2.1-9.5.1zM415.6 295.6c-2.2 2.1-2 2.8 1.5 6.9 3.1 3.4 6.2 4.5 7.4 2.5.4-.6 1.9 0 3.7 1.5 3.3 2.8 4.6 2.8 6.2.3 2.3-3.8-4.6-10.6-7.9-7.8-1.3 1.1-2.1.8-4.8-1.8-3.8-3.7-4-3.7-6.1-1.6zM326.3 432.7c-1.5 3.2-2.4 3.9-5.7 4.3-8.2 1.1-7 7 1.4 7 4 0 5.3-.5 7.8-3 4.7-4.6 4.8-12 .2-12-1.3 0-2.6 1.3-3.7 3.7zM364.4 448.5c-6.5 2.9-19.2 4.4-41.5 4.9-20 .5-35.7-.2-40.8-1.9-2.6-.8-5.5 1.8-4.7 4.3 1.4 4.1 6 4.7 39.1 4.7 32.1 0 36.1-.4 49.3-4.6 6.3-2.1 8.7-4.4 7.6-7.3-.7-1.9-4.7-2-9-.1zM322 474c-11.9.4-13.5.7-13.8 2.3-.8 4 1.4 4.7 15 4.7 13.5 0 16.8-.8 16.8-4 0-1.6-3.1-4.5-4.2-3.8-.2.1-6.4.5-13.8.8z"/></svg>